<mxfile host="Electron" agent="Mozilla/5.0 (Windows NT 10.0; Win64; x64) AppleWebKit/537.36 (KHTML, like Gecko) draw.io/24.7.8 Chrome/128.0.6613.36 Electron/32.0.1 Safari/537.36" version="24.7.8" pages="3">
  <diagram name="sd" id="VnjkQmpZoNo_wONIIv6f">
    <mxGraphModel dx="882" dy="677" grid="1" gridSize="10" guides="1" tooltips="1" connect="1" arrows="1" fold="1" page="1" pageScale="1" pageWidth="1169" pageHeight="827" math="0" shadow="0">
      <root>
        <mxCell id="0" />
        <mxCell id="1" parent="0" />
        <mxCell id="U1RbsRqmAA--ChEILww5-11" style="rounded=0;orthogonalLoop=1;jettySize=auto;html=1;exitX=0.5;exitY=1;exitDx=0;exitDy=0;endArrow=none;endFill=0;" parent="1" source="PowVe_XcdjHxKWlcwQPH-1" edge="1">
          <mxGeometry relative="1" as="geometry">
            <mxPoint x="540.1428571428573" y="200.0000000000001" as="targetPoint" />
          </mxGeometry>
        </mxCell>
        <mxCell id="PowVe_XcdjHxKWlcwQPH-1" value="House Prices" style="rounded=0;whiteSpace=wrap;html=1;spacingLeft=4;spacingRight=4;" parent="1" vertex="1">
          <mxGeometry x="480" y="120" width="120" height="60" as="geometry" />
        </mxCell>
        <mxCell id="PowVe_XcdjHxKWlcwQPH-7" style="rounded=0;orthogonalLoop=1;jettySize=auto;html=1;exitX=0.75;exitY=1;exitDx=0;exitDy=0;endArrow=block;endFill=1;entryX=0.5;entryY=0;entryDx=0;entryDy=0;" parent="1" source="PowVe_XcdjHxKWlcwQPH-2" target="PowVe_XcdjHxKWlcwQPH-8" edge="1">
          <mxGeometry relative="1" as="geometry">
            <mxPoint x="170" y="480" as="targetPoint" />
          </mxGeometry>
        </mxCell>
        <mxCell id="PowVe_XcdjHxKWlcwQPH-25" style="edgeStyle=none;shape=connector;rounded=0;orthogonalLoop=1;jettySize=auto;html=1;exitX=0.5;exitY=0;exitDx=0;exitDy=0;labelBackgroundColor=default;strokeColor=default;align=center;verticalAlign=middle;fontFamily=Helvetica;fontSize=11;fontColor=default;endArrow=none;endFill=0;" parent="1" source="PowVe_XcdjHxKWlcwQPH-2" edge="1">
          <mxGeometry relative="1" as="geometry">
            <mxPoint x="140" y="200" as="targetPoint" />
          </mxGeometry>
        </mxCell>
        <mxCell id="PowVe_XcdjHxKWlcwQPH-2" value="Read values&lt;br&gt;from file" style="rounded=0;whiteSpace=wrap;html=1;spacingLeft=4;spacingRight=4;" parent="1" vertex="1">
          <mxGeometry x="80" y="400" width="120" height="60" as="geometry" />
        </mxCell>
        <mxCell id="PowVe_XcdjHxKWlcwQPH-9" style="edgeStyle=none;shape=connector;rounded=0;orthogonalLoop=1;jettySize=auto;html=1;exitX=0.25;exitY=1;exitDx=0;exitDy=0;labelBackgroundColor=default;strokeColor=default;align=center;verticalAlign=middle;fontFamily=Helvetica;fontSize=11;fontColor=default;endArrow=none;endFill=0;startArrow=block;startFill=1;entryX=0.507;entryY=-0.167;entryDx=0;entryDy=0;entryPerimeter=0;" parent="1" source="PowVe_XcdjHxKWlcwQPH-3" target="PowVe_XcdjHxKWlcwQPH-13" edge="1">
          <mxGeometry relative="1" as="geometry">
            <mxPoint x="210" y="340" as="targetPoint" />
          </mxGeometry>
        </mxCell>
        <mxCell id="PowVe_XcdjHxKWlcwQPH-26" style="edgeStyle=none;shape=connector;rounded=0;orthogonalLoop=1;jettySize=auto;html=1;exitX=0.5;exitY=0;exitDx=0;exitDy=0;labelBackgroundColor=default;strokeColor=default;align=center;verticalAlign=middle;fontFamily=Helvetica;fontSize=11;fontColor=default;endArrow=none;endFill=0;" parent="1" source="PowVe_XcdjHxKWlcwQPH-3" edge="1">
          <mxGeometry relative="1" as="geometry">
            <mxPoint x="240" y="200" as="targetPoint" />
          </mxGeometry>
        </mxCell>
        <mxCell id="Txo5PwIn9N_GCmMF_Ycm-1" style="rounded=0;orthogonalLoop=1;jettySize=auto;html=1;exitX=0.75;exitY=1;exitDx=0;exitDy=0;endArrow=block;endFill=1;entryX=0.5;entryY=0;entryDx=0;entryDy=0;" parent="1" source="PowVe_XcdjHxKWlcwQPH-3" target="xxJK9P8Vd8mZIawA9TZV-1" edge="1">
          <mxGeometry relative="1" as="geometry">
            <mxPoint x="270" y="320" as="targetPoint" />
          </mxGeometry>
        </mxCell>
        <mxCell id="PowVe_XcdjHxKWlcwQPH-3" value="Count HS0 postcodes" style="rounded=0;whiteSpace=wrap;html=1;spacingLeft=4;spacingRight=4;" parent="1" vertex="1">
          <mxGeometry x="180" y="240" width="120" height="60" as="geometry" />
        </mxCell>
        <mxCell id="PowVe_XcdjHxKWlcwQPH-11" style="edgeStyle=none;shape=connector;rounded=0;orthogonalLoop=1;jettySize=auto;html=1;exitX=0.25;exitY=1;exitDx=0;exitDy=0;labelBackgroundColor=default;strokeColor=default;align=center;verticalAlign=middle;fontFamily=Helvetica;fontSize=11;fontColor=default;endArrow=none;endFill=0;startArrow=block;startFill=1;entryX=0.5;entryY=0;entryDx=0;entryDy=0;" parent="1" source="PowVe_XcdjHxKWlcwQPH-4" target="PowVe_XcdjHxKWlcwQPH-14" edge="1">
          <mxGeometry relative="1" as="geometry">
            <mxPoint x="310" y="510" as="targetPoint" />
          </mxGeometry>
        </mxCell>
        <mxCell id="PowVe_XcdjHxKWlcwQPH-12" style="edgeStyle=none;shape=connector;rounded=0;orthogonalLoop=1;jettySize=auto;html=1;exitX=0.75;exitY=1;exitDx=0;exitDy=0;labelBackgroundColor=default;strokeColor=default;align=center;verticalAlign=middle;fontFamily=Helvetica;fontSize=11;fontColor=default;endArrow=block;endFill=1;entryX=0.5;entryY=0;entryDx=0;entryDy=0;" parent="1" source="PowVe_XcdjHxKWlcwQPH-4" target="PowVe_XcdjHxKWlcwQPH-15" edge="1">
          <mxGeometry relative="1" as="geometry">
            <mxPoint x="370" y="480" as="targetPoint" />
          </mxGeometry>
        </mxCell>
        <mxCell id="RG_cs5pnTQg8f9EixFHb-1" style="edgeStyle=orthogonalEdgeStyle;rounded=0;orthogonalLoop=1;jettySize=auto;html=1;exitX=0.5;exitY=0;exitDx=0;exitDy=0;endArrow=none;endFill=0;" parent="1" source="PowVe_XcdjHxKWlcwQPH-4" edge="1">
          <mxGeometry relative="1" as="geometry">
            <mxPoint x="340" y="200" as="targetPoint" />
          </mxGeometry>
        </mxCell>
        <mxCell id="PowVe_XcdjHxKWlcwQPH-4" value="Correct HS0 postcodes" style="rounded=0;whiteSpace=wrap;html=1;spacingLeft=4;spacingRight=4;" parent="1" vertex="1">
          <mxGeometry x="280" y="400" width="120" height="60" as="geometry" />
        </mxCell>
        <mxCell id="PowVe_XcdjHxKWlcwQPH-16" style="edgeStyle=none;shape=connector;rounded=0;orthogonalLoop=1;jettySize=auto;html=1;exitX=0.25;exitY=1;exitDx=0;exitDy=0;labelBackgroundColor=default;strokeColor=default;align=center;verticalAlign=middle;fontFamily=Helvetica;fontSize=11;fontColor=default;endArrow=none;endFill=0;startArrow=block;startFill=1;entryX=0.5;entryY=0;entryDx=0;entryDy=0;" parent="1" source="PowVe_XcdjHxKWlcwQPH-5" target="PowVe_XcdjHxKWlcwQPH-18" edge="1">
          <mxGeometry relative="1" as="geometry">
            <mxPoint x="410" y="360" as="targetPoint" />
          </mxGeometry>
        </mxCell>
        <mxCell id="PowVe_XcdjHxKWlcwQPH-17" style="edgeStyle=none;shape=connector;rounded=0;orthogonalLoop=1;jettySize=auto;html=1;exitX=0.75;exitY=1;exitDx=0;exitDy=0;labelBackgroundColor=default;strokeColor=default;align=center;verticalAlign=middle;fontFamily=Helvetica;fontSize=11;fontColor=default;endArrow=block;endFill=1;entryX=0.5;entryY=0;entryDx=0;entryDy=0;" parent="1" source="PowVe_XcdjHxKWlcwQPH-5" target="PowVe_XcdjHxKWlcwQPH-19" edge="1">
          <mxGeometry relative="1" as="geometry">
            <mxPoint x="470" y="320" as="targetPoint" />
          </mxGeometry>
        </mxCell>
        <mxCell id="PowVe_XcdjHxKWlcwQPH-27" style="edgeStyle=none;shape=connector;rounded=0;orthogonalLoop=1;jettySize=auto;html=1;exitX=0.5;exitY=0;exitDx=0;exitDy=0;labelBackgroundColor=default;strokeColor=default;align=center;verticalAlign=middle;fontFamily=Helvetica;fontSize=11;fontColor=default;endArrow=none;endFill=0;" parent="1" source="PowVe_XcdjHxKWlcwQPH-5" edge="1">
          <mxGeometry relative="1" as="geometry">
            <mxPoint x="440" y="200" as="targetPoint" />
          </mxGeometry>
        </mxCell>
        <mxCell id="PowVe_XcdjHxKWlcwQPH-5" value="Calculate new house prices" style="rounded=0;whiteSpace=wrap;html=1;spacingLeft=4;spacingRight=4;" parent="1" vertex="1">
          <mxGeometry x="380" y="240" width="120" height="60" as="geometry" />
        </mxCell>
        <mxCell id="PowVe_XcdjHxKWlcwQPH-21" style="edgeStyle=none;shape=connector;rounded=0;orthogonalLoop=1;jettySize=auto;html=1;exitX=0.25;exitY=1;exitDx=0;exitDy=0;labelBackgroundColor=default;strokeColor=default;align=center;verticalAlign=middle;fontFamily=Helvetica;fontSize=11;fontColor=default;endArrow=none;endFill=0;startArrow=block;startFill=1;entryX=0.5;entryY=0;entryDx=0;entryDy=0;" parent="1" source="PowVe_XcdjHxKWlcwQPH-6" target="xxJK9P8Vd8mZIawA9TZV-3" edge="1">
          <mxGeometry relative="1" as="geometry">
            <mxPoint x="510" y="520" as="targetPoint" />
          </mxGeometry>
        </mxCell>
        <mxCell id="PowVe_XcdjHxKWlcwQPH-28" style="edgeStyle=none;shape=connector;rounded=0;orthogonalLoop=1;jettySize=auto;html=1;exitX=0.5;exitY=0;exitDx=0;exitDy=0;labelBackgroundColor=default;strokeColor=default;align=center;verticalAlign=middle;fontFamily=Helvetica;fontSize=11;fontColor=default;endArrow=none;endFill=0;" parent="1" source="PowVe_XcdjHxKWlcwQPH-6" edge="1">
          <mxGeometry relative="1" as="geometry">
            <mxPoint x="540" y="200" as="targetPoint" />
          </mxGeometry>
        </mxCell>
        <mxCell id="xxJK9P8Vd8mZIawA9TZV-5" style="edgeStyle=none;rounded=0;orthogonalLoop=1;jettySize=auto;html=1;exitX=0.75;exitY=1;exitDx=0;exitDy=0;entryX=0.5;entryY=0;entryDx=0;entryDy=0;endArrow=block;endFill=1;" parent="1" source="PowVe_XcdjHxKWlcwQPH-6" target="xxJK9P8Vd8mZIawA9TZV-4" edge="1">
          <mxGeometry relative="1" as="geometry" />
        </mxCell>
        <mxCell id="PowVe_XcdjHxKWlcwQPH-6" value="Find lowest&lt;br&gt;house price" style="rounded=0;whiteSpace=wrap;html=1;spacingLeft=4;spacingRight=4;" parent="1" vertex="1">
          <mxGeometry x="480" y="400" width="120" height="60" as="geometry" />
        </mxCell>
        <mxCell id="PowVe_XcdjHxKWlcwQPH-8" value="postcodes()&lt;br&gt;origValues()" style="text;html=1;strokeColor=none;fillColor=none;align=center;verticalAlign=middle;whiteSpace=wrap;rounded=0;fontSize=11;fontFamily=Helvetica;fontColor=default;" parent="1" vertex="1">
          <mxGeometry x="130" y="480" width="80" height="30" as="geometry" />
        </mxCell>
        <mxCell id="PowVe_XcdjHxKWlcwQPH-13" value="postcodes()" style="text;html=1;strokeColor=none;fillColor=none;align=center;verticalAlign=middle;whiteSpace=wrap;rounded=0;fontSize=11;fontFamily=Helvetica;fontColor=default;" parent="1" vertex="1">
          <mxGeometry x="170" y="350" width="80" height="20" as="geometry" />
        </mxCell>
        <mxCell id="PowVe_XcdjHxKWlcwQPH-14" value="postcodes()" style="text;html=1;strokeColor=none;fillColor=none;align=center;verticalAlign=middle;whiteSpace=wrap;rounded=0;fontSize=11;fontFamily=Helvetica;fontColor=default;" parent="1" vertex="1">
          <mxGeometry x="270" y="510" width="80" height="20" as="geometry" />
        </mxCell>
        <mxCell id="PowVe_XcdjHxKWlcwQPH-15" value="postcodes()" style="text;html=1;strokeColor=none;fillColor=none;align=center;verticalAlign=middle;whiteSpace=wrap;rounded=0;fontSize=11;fontFamily=Helvetica;fontColor=default;" parent="1" vertex="1">
          <mxGeometry x="330" y="480" width="80" height="20" as="geometry" />
        </mxCell>
        <mxCell id="PowVe_XcdjHxKWlcwQPH-18" value="postcodes()&lt;br&gt;origValues()" style="text;html=1;strokeColor=none;fillColor=none;align=center;verticalAlign=middle;whiteSpace=wrap;rounded=0;fontSize=11;fontFamily=Helvetica;fontColor=default;" parent="1" vertex="1">
          <mxGeometry x="370" y="350" width="80" height="30" as="geometry" />
        </mxCell>
        <mxCell id="PowVe_XcdjHxKWlcwQPH-19" value="newValues()" style="text;html=1;strokeColor=none;fillColor=none;align=center;verticalAlign=middle;whiteSpace=wrap;rounded=0;fontSize=11;fontFamily=Helvetica;fontColor=default;" parent="1" vertex="1">
          <mxGeometry x="430" y="320" width="80" height="20" as="geometry" />
        </mxCell>
        <mxCell id="PowVe_XcdjHxKWlcwQPH-23" value="" style="endArrow=none;html=1;rounded=0;labelBackgroundColor=default;strokeColor=default;align=center;verticalAlign=middle;fontFamily=Helvetica;fontSize=11;fontColor=default;shape=connector;" parent="1" edge="1">
          <mxGeometry width="50" height="50" relative="1" as="geometry">
            <mxPoint x="140" y="200" as="sourcePoint" />
            <mxPoint x="1020" y="200" as="targetPoint" />
          </mxGeometry>
        </mxCell>
        <mxCell id="U1RbsRqmAA--ChEILww5-1" style="edgeStyle=none;shape=connector;rounded=0;orthogonalLoop=1;jettySize=auto;html=1;exitX=0.25;exitY=1;exitDx=0;exitDy=0;labelBackgroundColor=default;strokeColor=default;align=center;verticalAlign=middle;fontFamily=Helvetica;fontSize=11;fontColor=default;endArrow=none;endFill=0;startArrow=block;startFill=1;entryX=0.5;entryY=0;entryDx=0;entryDy=0;" parent="1" source="U1RbsRqmAA--ChEILww5-4" target="U1RbsRqmAA--ChEILww5-10" edge="1">
          <mxGeometry relative="1" as="geometry">
            <mxPoint x="610" y="340" as="targetPoint" />
          </mxGeometry>
        </mxCell>
        <mxCell id="U1RbsRqmAA--ChEILww5-2" style="edgeStyle=none;shape=connector;rounded=0;orthogonalLoop=1;jettySize=auto;html=1;exitX=0.75;exitY=1;exitDx=0;exitDy=0;labelBackgroundColor=default;strokeColor=default;align=center;verticalAlign=middle;fontFamily=Helvetica;fontSize=11;fontColor=default;endArrow=block;endFill=1;entryX=0.5;entryY=0;entryDx=0;entryDy=0;" parent="1" source="U1RbsRqmAA--ChEILww5-4" target="U1RbsRqmAA--ChEILww5-8" edge="1">
          <mxGeometry relative="1" as="geometry">
            <mxPoint x="670" y="320" as="targetPoint" />
          </mxGeometry>
        </mxCell>
        <mxCell id="U1RbsRqmAA--ChEILww5-3" style="edgeStyle=none;shape=connector;rounded=0;orthogonalLoop=1;jettySize=auto;html=1;exitX=0.5;exitY=0;exitDx=0;exitDy=0;labelBackgroundColor=default;strokeColor=default;align=center;verticalAlign=middle;fontFamily=Helvetica;fontSize=11;fontColor=default;endArrow=none;endFill=0;" parent="1" source="U1RbsRqmAA--ChEILww5-4" edge="1">
          <mxGeometry relative="1" as="geometry">
            <mxPoint x="640" y="200" as="targetPoint" />
          </mxGeometry>
        </mxCell>
        <mxCell id="U1RbsRqmAA--ChEILww5-4" value="Find highest&lt;br&gt;house price" style="rounded=0;whiteSpace=wrap;html=1;spacingLeft=4;spacingRight=4;" parent="1" vertex="1">
          <mxGeometry x="580" y="240" width="120" height="60" as="geometry" />
        </mxCell>
        <mxCell id="U1RbsRqmAA--ChEILww5-5" style="edgeStyle=none;shape=connector;rounded=0;orthogonalLoop=1;jettySize=auto;html=1;exitX=0.339;exitY=0.972;exitDx=0;exitDy=0;labelBackgroundColor=default;strokeColor=default;align=center;verticalAlign=middle;fontFamily=Helvetica;fontSize=11;fontColor=default;endArrow=none;endFill=0;startArrow=block;startFill=1;entryX=0.5;entryY=0;entryDx=0;entryDy=0;exitPerimeter=0;" parent="1" source="U1RbsRqmAA--ChEILww5-7" target="U1RbsRqmAA--ChEILww5-9" edge="1">
          <mxGeometry relative="1" as="geometry">
            <mxPoint x="690" y="510" as="targetPoint" />
            <mxPoint x="690" y="460" as="sourcePoint" />
          </mxGeometry>
        </mxCell>
        <mxCell id="U1RbsRqmAA--ChEILww5-6" style="edgeStyle=none;shape=connector;rounded=0;orthogonalLoop=1;jettySize=auto;html=1;exitX=0.5;exitY=0;exitDx=0;exitDy=0;labelBackgroundColor=default;strokeColor=default;align=center;verticalAlign=middle;fontFamily=Helvetica;fontSize=11;fontColor=default;endArrow=none;endFill=0;" parent="1" edge="1">
          <mxGeometry relative="1" as="geometry">
            <mxPoint x="720" y="200" as="targetPoint" />
            <mxPoint x="720" y="400" as="sourcePoint" />
          </mxGeometry>
        </mxCell>
        <mxCell id="xxJK9P8Vd8mZIawA9TZV-28" style="edgeStyle=none;rounded=0;orthogonalLoop=1;jettySize=auto;html=1;exitX=0.75;exitY=1;exitDx=0;exitDy=0;endArrow=block;endFill=1;entryX=0.5;entryY=0;entryDx=0;entryDy=0;" parent="1" source="U1RbsRqmAA--ChEILww5-7" target="xxJK9P8Vd8mZIawA9TZV-27" edge="1">
          <mxGeometry relative="1" as="geometry">
            <mxPoint x="740.3103448275863" y="480.0000000000001" as="targetPoint" />
          </mxGeometry>
        </mxCell>
        <mxCell id="U1RbsRqmAA--ChEILww5-7" value="Count houses with lowest price" style="rounded=0;whiteSpace=wrap;html=1;spacingLeft=4;spacingRight=4;" parent="1" vertex="1">
          <mxGeometry x="650" y="400" width="120" height="60" as="geometry" />
        </mxCell>
        <mxCell id="U1RbsRqmAA--ChEILww5-8" value="highest" style="text;html=1;strokeColor=none;fillColor=none;align=center;verticalAlign=middle;whiteSpace=wrap;rounded=0;fontSize=11;fontFamily=Helvetica;fontColor=default;" parent="1" vertex="1">
          <mxGeometry x="640" y="320" width="60" height="20" as="geometry" />
        </mxCell>
        <mxCell id="U1RbsRqmAA--ChEILww5-9" value="newValues()&lt;br&gt;lowest" style="text;html=1;strokeColor=none;fillColor=none;align=center;verticalAlign=middle;whiteSpace=wrap;rounded=0;fontSize=11;fontFamily=Helvetica;fontColor=default;" parent="1" vertex="1">
          <mxGeometry x="650" y="510" width="80" height="30" as="geometry" />
        </mxCell>
        <mxCell id="U1RbsRqmAA--ChEILww5-10" value="newValues()" style="text;html=1;strokeColor=none;fillColor=none;align=center;verticalAlign=middle;whiteSpace=wrap;rounded=0;fontSize=11;fontFamily=Helvetica;fontColor=default;" parent="1" vertex="1">
          <mxGeometry x="570" y="350" width="80" height="20" as="geometry" />
        </mxCell>
        <mxCell id="xxJK9P8Vd8mZIawA9TZV-1" value="badCodes" style="text;html=1;strokeColor=none;fillColor=none;align=center;verticalAlign=middle;whiteSpace=wrap;rounded=0;fontSize=11;fontFamily=Helvetica;fontColor=default;" parent="1" vertex="1">
          <mxGeometry x="240" y="320" width="60" height="20" as="geometry" />
        </mxCell>
        <mxCell id="xxJK9P8Vd8mZIawA9TZV-3" value="newValues()" style="text;html=1;strokeColor=none;fillColor=none;align=center;verticalAlign=middle;whiteSpace=wrap;rounded=0;fontSize=11;fontFamily=Helvetica;fontColor=default;" parent="1" vertex="1">
          <mxGeometry x="470" y="510" width="80" height="20" as="geometry" />
        </mxCell>
        <mxCell id="xxJK9P8Vd8mZIawA9TZV-4" value="lowest" style="text;html=1;strokeColor=none;fillColor=none;align=center;verticalAlign=middle;whiteSpace=wrap;rounded=0;fontSize=11;fontFamily=Helvetica;fontColor=default;" parent="1" vertex="1">
          <mxGeometry x="540" y="480" width="60" height="20" as="geometry" />
        </mxCell>
        <mxCell id="xxJK9P8Vd8mZIawA9TZV-6" style="edgeStyle=none;shape=connector;rounded=0;orthogonalLoop=1;jettySize=auto;html=1;exitX=0.25;exitY=1;exitDx=0;exitDy=0;labelBackgroundColor=default;strokeColor=default;align=center;verticalAlign=middle;fontFamily=Helvetica;fontSize=11;fontColor=default;endArrow=none;endFill=0;startArrow=block;startFill=1;entryX=0.5;entryY=0;entryDx=0;entryDy=0;" parent="1" source="xxJK9P8Vd8mZIawA9TZV-9" target="xxJK9P8Vd8mZIawA9TZV-26" edge="1">
          <mxGeometry relative="1" as="geometry">
            <mxPoint x="790" y="340" as="targetPoint" />
          </mxGeometry>
        </mxCell>
        <mxCell id="xxJK9P8Vd8mZIawA9TZV-8" style="edgeStyle=none;shape=connector;rounded=0;orthogonalLoop=1;jettySize=auto;html=1;exitX=0.5;exitY=0;exitDx=0;exitDy=0;labelBackgroundColor=default;strokeColor=default;align=center;verticalAlign=middle;fontFamily=Helvetica;fontSize=11;fontColor=default;endArrow=none;endFill=0;" parent="1" source="xxJK9P8Vd8mZIawA9TZV-9" edge="1">
          <mxGeometry relative="1" as="geometry">
            <mxPoint x="820" y="200" as="targetPoint" />
          </mxGeometry>
        </mxCell>
        <mxCell id="xxJK9P8Vd8mZIawA9TZV-29" style="edgeStyle=none;rounded=0;orthogonalLoop=1;jettySize=auto;html=1;exitX=0.75;exitY=1;exitDx=0;exitDy=0;endArrow=block;endFill=1;" parent="1" source="xxJK9P8Vd8mZIawA9TZV-9" edge="1">
          <mxGeometry relative="1" as="geometry">
            <mxPoint x="849.9444444444443" y="320" as="targetPoint" />
          </mxGeometry>
        </mxCell>
        <mxCell id="xxJK9P8Vd8mZIawA9TZV-9" value="Count houses with highest price" style="rounded=0;whiteSpace=wrap;html=1;spacingLeft=4;spacingRight=4;" parent="1" vertex="1">
          <mxGeometry x="760" y="240" width="120" height="60" as="geometry" />
        </mxCell>
        <mxCell id="xxJK9P8Vd8mZIawA9TZV-18" style="edgeStyle=none;shape=connector;rounded=0;orthogonalLoop=1;jettySize=auto;html=1;exitX=0.25;exitY=1;exitDx=0;exitDy=0;labelBackgroundColor=default;strokeColor=default;align=center;verticalAlign=middle;fontFamily=Helvetica;fontSize=11;fontColor=default;endArrow=none;endFill=0;startArrow=block;startFill=1;entryX=0.5;entryY=0;entryDx=0;entryDy=0;" parent="1" source="xxJK9P8Vd8mZIawA9TZV-20" target="xxJK9P8Vd8mZIawA9TZV-21" edge="1">
          <mxGeometry relative="1" as="geometry">
            <mxPoint x="890" y="510" as="targetPoint" />
          </mxGeometry>
        </mxCell>
        <mxCell id="xxJK9P8Vd8mZIawA9TZV-19" style="edgeStyle=none;shape=connector;rounded=0;orthogonalLoop=1;jettySize=auto;html=1;exitX=0.5;exitY=0;exitDx=0;exitDy=0;labelBackgroundColor=default;strokeColor=default;align=center;verticalAlign=middle;fontFamily=Helvetica;fontSize=11;fontColor=default;endArrow=none;endFill=0;" parent="1" source="xxJK9P8Vd8mZIawA9TZV-20" edge="1">
          <mxGeometry relative="1" as="geometry">
            <mxPoint x="920" y="200" as="targetPoint" />
          </mxGeometry>
        </mxCell>
        <mxCell id="xxJK9P8Vd8mZIawA9TZV-20" value="Write summary&lt;br&gt;information to file" style="rounded=0;whiteSpace=wrap;html=1;spacingLeft=4;spacingRight=4;" parent="1" vertex="1">
          <mxGeometry x="860" y="400" width="120" height="60" as="geometry" />
        </mxCell>
        <mxCell id="xxJK9P8Vd8mZIawA9TZV-21" value="badCodes&lt;br&gt;lowest&lt;br&gt;highest&lt;br&gt;lowCount&lt;br&gt;highCount&lt;br&gt;postcodes()&lt;br&gt;newValues()" style="text;html=1;strokeColor=none;fillColor=none;align=center;verticalAlign=middle;whiteSpace=wrap;rounded=0;fontSize=11;fontFamily=Helvetica;fontColor=default;" parent="1" vertex="1">
          <mxGeometry x="850" y="510" width="80" height="100" as="geometry" />
        </mxCell>
        <mxCell id="xxJK9P8Vd8mZIawA9TZV-26" value="newValues()&lt;br&gt;highest" style="text;html=1;strokeColor=none;fillColor=none;align=center;verticalAlign=middle;whiteSpace=wrap;rounded=0;fontSize=11;fontFamily=Helvetica;fontColor=default;" parent="1" vertex="1">
          <mxGeometry x="750" y="350" width="80" height="30" as="geometry" />
        </mxCell>
        <mxCell id="xxJK9P8Vd8mZIawA9TZV-27" value="lowCount" style="text;html=1;strokeColor=none;fillColor=none;align=center;verticalAlign=middle;whiteSpace=wrap;rounded=0;fontSize=11;fontFamily=Helvetica;fontColor=default;" parent="1" vertex="1">
          <mxGeometry x="710" y="480" width="60" height="20" as="geometry" />
        </mxCell>
        <mxCell id="xxJK9P8Vd8mZIawA9TZV-30" value="highCount" style="text;html=1;strokeColor=none;fillColor=none;align=center;verticalAlign=middle;whiteSpace=wrap;rounded=0;fontSize=11;fontFamily=Helvetica;fontColor=default;" parent="1" vertex="1">
          <mxGeometry x="820" y="320" width="60" height="20" as="geometry" />
        </mxCell>
        <mxCell id="xxJK9P8Vd8mZIawA9TZV-32" style="edgeStyle=none;shape=connector;rounded=0;orthogonalLoop=1;jettySize=auto;html=1;exitX=0.25;exitY=1;exitDx=0;exitDy=0;labelBackgroundColor=default;strokeColor=default;align=center;verticalAlign=middle;fontFamily=Helvetica;fontSize=11;fontColor=default;endArrow=none;endFill=0;startArrow=block;startFill=1;entryX=0.5;entryY=0;entryDx=0;entryDy=0;" parent="1" source="xxJK9P8Vd8mZIawA9TZV-33" target="xxJK9P8Vd8mZIawA9TZV-34" edge="1">
          <mxGeometry relative="1" as="geometry">
            <mxPoint x="990" y="344" as="targetPoint" />
          </mxGeometry>
        </mxCell>
        <mxCell id="xxJK9P8Vd8mZIawA9TZV-35" style="edgeStyle=none;rounded=0;orthogonalLoop=1;jettySize=auto;html=1;exitX=0.5;exitY=0;exitDx=0;exitDy=0;endArrow=none;endFill=0;" parent="1" source="xxJK9P8Vd8mZIawA9TZV-33" edge="1">
          <mxGeometry relative="1" as="geometry">
            <mxPoint x="1020.3076923076922" y="200" as="targetPoint" />
          </mxGeometry>
        </mxCell>
        <mxCell id="xxJK9P8Vd8mZIawA9TZV-33" value="Write data to file" style="rounded=0;whiteSpace=wrap;html=1;spacingLeft=4;spacingRight=4;" parent="1" vertex="1">
          <mxGeometry x="960" y="234" width="120" height="60" as="geometry" />
        </mxCell>
        <mxCell id="xxJK9P8Vd8mZIawA9TZV-34" value="postcodes()&lt;br&gt;origValues()&lt;br&gt;newValues()" style="text;html=1;strokeColor=none;fillColor=none;align=center;verticalAlign=middle;whiteSpace=wrap;rounded=0;fontSize=11;fontFamily=Helvetica;fontColor=default;" parent="1" vertex="1">
          <mxGeometry x="950" y="344" width="80" height="46" as="geometry" />
        </mxCell>
      </root>
    </mxGraphModel>
  </diagram>
  <diagram id="79AOVf93_7tZfTyAgPTb" name="Page-2">
    <mxGraphModel dx="782" dy="539" grid="1" gridSize="10" guides="1" tooltips="1" connect="1" arrows="1" fold="1" page="1" pageScale="1" pageWidth="1169" pageHeight="827" math="0" shadow="0">
      <root>
        <mxCell id="0" />
        <mxCell id="1" parent="0" />
        <mxCell id="-yav23MqyK7CyO7x3P25-18" style="edgeStyle=orthogonalEdgeStyle;rounded=0;orthogonalLoop=1;jettySize=auto;html=1;exitX=0.5;exitY=1;exitDx=0;exitDy=0;entryX=0.5;entryY=0;entryDx=0;entryDy=0;startArrow=block;startFill=1;endArrow=none;endFill=0;" parent="1" source="-yav23MqyK7CyO7x3P25-1" target="-yav23MqyK7CyO7x3P25-6" edge="1">
          <mxGeometry relative="1" as="geometry" />
        </mxCell>
        <mxCell id="-yav23MqyK7CyO7x3P25-1" value="House Value&lt;br&gt;Increase" style="rounded=0;whiteSpace=wrap;html=1;" parent="1" vertex="1">
          <mxGeometry x="320" y="120" width="120" height="60" as="geometry" />
        </mxCell>
        <mxCell id="-yav23MqyK7CyO7x3P25-3" style="edgeStyle=orthogonalEdgeStyle;rounded=0;orthogonalLoop=1;jettySize=auto;html=1;exitX=0.75;exitY=1;exitDx=0;exitDy=0;endArrow=block;endFill=1;" parent="1" source="-yav23MqyK7CyO7x3P25-2" edge="1">
          <mxGeometry relative="1" as="geometry">
            <mxPoint x="210" y="320" as="targetPoint" />
          </mxGeometry>
        </mxCell>
        <mxCell id="-yav23MqyK7CyO7x3P25-17" style="edgeStyle=orthogonalEdgeStyle;rounded=0;orthogonalLoop=1;jettySize=auto;html=1;exitX=0.5;exitY=0;exitDx=0;exitDy=0;startArrow=none;startFill=0;endArrow=none;endFill=0;" parent="1" source="-yav23MqyK7CyO7x3P25-2" edge="1">
          <mxGeometry relative="1" as="geometry">
            <mxPoint x="180" y="200" as="targetPoint" />
          </mxGeometry>
        </mxCell>
        <mxCell id="-yav23MqyK7CyO7x3P25-2" value="Read values&lt;br&gt;from file" style="rounded=0;whiteSpace=wrap;html=1;" parent="1" vertex="1">
          <mxGeometry x="120" y="240" width="120" height="60" as="geometry" />
        </mxCell>
        <mxCell id="-yav23MqyK7CyO7x3P25-4" value="postcodes()&lt;br&gt;origValues()" style="text;html=1;strokeColor=none;fillColor=none;align=center;verticalAlign=top;whiteSpace=wrap;rounded=0;" parent="1" vertex="1">
          <mxGeometry x="170" y="320" width="80" height="40" as="geometry" />
        </mxCell>
        <mxCell id="-yav23MqyK7CyO7x3P25-7" style="edgeStyle=orthogonalEdgeStyle;rounded=0;orthogonalLoop=1;jettySize=auto;html=1;exitX=0.25;exitY=1;exitDx=0;exitDy=0;endArrow=none;endFill=0;startArrow=block;startFill=1;" parent="1" source="-yav23MqyK7CyO7x3P25-6" edge="1">
          <mxGeometry relative="1" as="geometry">
            <mxPoint x="350" y="360" as="targetPoint" />
          </mxGeometry>
        </mxCell>
        <mxCell id="-yav23MqyK7CyO7x3P25-8" style="edgeStyle=orthogonalEdgeStyle;rounded=0;orthogonalLoop=1;jettySize=auto;html=1;exitX=0.75;exitY=1;exitDx=0;exitDy=0;endArrow=block;endFill=1;" parent="1" source="-yav23MqyK7CyO7x3P25-6" edge="1">
          <mxGeometry relative="1" as="geometry">
            <mxPoint x="410" y="320" as="targetPoint" />
          </mxGeometry>
        </mxCell>
        <mxCell id="-yav23MqyK7CyO7x3P25-6" value="Calculate increased price" style="rounded=0;whiteSpace=wrap;html=1;" parent="1" vertex="1">
          <mxGeometry x="320" y="240" width="120" height="60" as="geometry" />
        </mxCell>
        <mxCell id="-yav23MqyK7CyO7x3P25-9" value="postcodes()&lt;br&gt;origValues()" style="text;html=1;strokeColor=none;fillColor=none;align=center;verticalAlign=top;whiteSpace=wrap;rounded=0;rotation=0;" parent="1" vertex="1">
          <mxGeometry x="310" y="360" width="80" height="40" as="geometry" />
        </mxCell>
        <mxCell id="-yav23MqyK7CyO7x3P25-10" value="newValues()" style="text;html=1;strokeColor=none;fillColor=none;align=center;verticalAlign=top;whiteSpace=wrap;rounded=0;" parent="1" vertex="1">
          <mxGeometry x="370" y="320" width="80" height="30" as="geometry" />
        </mxCell>
        <mxCell id="-yav23MqyK7CyO7x3P25-11" style="edgeStyle=orthogonalEdgeStyle;rounded=0;orthogonalLoop=1;jettySize=auto;html=1;exitX=0.25;exitY=1;exitDx=0;exitDy=0;endArrow=none;endFill=0;startArrow=block;startFill=1;" parent="1" source="-yav23MqyK7CyO7x3P25-13" edge="1">
          <mxGeometry relative="1" as="geometry">
            <mxPoint x="550" y="360" as="targetPoint" />
          </mxGeometry>
        </mxCell>
        <mxCell id="-yav23MqyK7CyO7x3P25-20" style="edgeStyle=orthogonalEdgeStyle;rounded=0;orthogonalLoop=1;jettySize=auto;html=1;exitX=0.5;exitY=0;exitDx=0;exitDy=0;startArrow=none;startFill=0;endArrow=none;endFill=0;" parent="1" source="-yav23MqyK7CyO7x3P25-13" edge="1">
          <mxGeometry relative="1" as="geometry">
            <mxPoint x="580" y="200" as="targetPoint" />
          </mxGeometry>
        </mxCell>
        <mxCell id="-yav23MqyK7CyO7x3P25-13" value="Write values&lt;br&gt;to file" style="rounded=0;whiteSpace=wrap;html=1;" parent="1" vertex="1">
          <mxGeometry x="520" y="240" width="120" height="60" as="geometry" />
        </mxCell>
        <mxCell id="-yav23MqyK7CyO7x3P25-14" value="postcodes()&lt;br&gt;origValues()&lt;br&gt;newValues()" style="text;html=1;strokeColor=none;fillColor=none;align=center;verticalAlign=top;whiteSpace=wrap;rounded=0;" parent="1" vertex="1">
          <mxGeometry x="510" y="360" width="80" height="60" as="geometry" />
        </mxCell>
        <mxCell id="-yav23MqyK7CyO7x3P25-16" value="" style="endArrow=none;html=1;rounded=0;" parent="1" edge="1">
          <mxGeometry width="50" height="50" relative="1" as="geometry">
            <mxPoint x="180" y="200" as="sourcePoint" />
            <mxPoint x="580" y="200" as="targetPoint" />
          </mxGeometry>
        </mxCell>
      </root>
    </mxGraphModel>
  </diagram>
  <diagram id="upZ0xQuPJdxBFCffpGIZ" name="Page-3">
    <mxGraphModel dx="782" dy="539" grid="1" gridSize="10" guides="1" tooltips="1" connect="1" arrows="1" fold="1" page="1" pageScale="1" pageWidth="1169" pageHeight="827" math="0" shadow="0">
      <root>
        <mxCell id="5r49eWNP3dl64256hJwa-0" />
        <mxCell id="5r49eWNP3dl64256hJwa-1" parent="5r49eWNP3dl64256hJwa-0" />
        <mxCell id="5r49eWNP3dl64256hJwa-2" style="edgeStyle=orthogonalEdgeStyle;rounded=0;orthogonalLoop=1;jettySize=auto;html=1;exitX=0.5;exitY=1;exitDx=0;exitDy=0;entryX=0.5;entryY=0;entryDx=0;entryDy=0;startArrow=block;startFill=1;endArrow=none;endFill=0;" parent="5r49eWNP3dl64256hJwa-1" source="5r49eWNP3dl64256hJwa-3" target="5r49eWNP3dl64256hJwa-10" edge="1">
          <mxGeometry relative="1" as="geometry" />
        </mxCell>
        <mxCell id="5r49eWNP3dl64256hJwa-3" value="House Value&lt;br&gt;Increase" style="rounded=0;whiteSpace=wrap;html=1;" parent="5r49eWNP3dl64256hJwa-1" vertex="1">
          <mxGeometry x="320" y="120" width="120" height="60" as="geometry" />
        </mxCell>
        <mxCell id="5r49eWNP3dl64256hJwa-4" style="edgeStyle=orthogonalEdgeStyle;rounded=0;orthogonalLoop=1;jettySize=auto;html=1;exitX=0.75;exitY=1;exitDx=0;exitDy=0;endArrow=block;endFill=1;" parent="5r49eWNP3dl64256hJwa-1" source="5r49eWNP3dl64256hJwa-6" edge="1">
          <mxGeometry relative="1" as="geometry">
            <mxPoint x="210" y="320" as="targetPoint" />
          </mxGeometry>
        </mxCell>
        <mxCell id="5r49eWNP3dl64256hJwa-5" style="edgeStyle=orthogonalEdgeStyle;rounded=0;orthogonalLoop=1;jettySize=auto;html=1;exitX=0.5;exitY=0;exitDx=0;exitDy=0;startArrow=none;startFill=0;endArrow=none;endFill=0;" parent="5r49eWNP3dl64256hJwa-1" source="5r49eWNP3dl64256hJwa-6" edge="1">
          <mxGeometry relative="1" as="geometry">
            <mxPoint x="180" y="200" as="targetPoint" />
          </mxGeometry>
        </mxCell>
        <mxCell id="5r49eWNP3dl64256hJwa-6" value="Read values&lt;br&gt;from file" style="rounded=0;whiteSpace=wrap;html=1;" parent="5r49eWNP3dl64256hJwa-1" vertex="1">
          <mxGeometry x="120" y="240" width="120" height="60" as="geometry" />
        </mxCell>
        <mxCell id="5r49eWNP3dl64256hJwa-7" value="postcodes()&lt;br&gt;origValues()" style="text;html=1;strokeColor=none;fillColor=none;align=center;verticalAlign=top;whiteSpace=wrap;rounded=0;" parent="5r49eWNP3dl64256hJwa-1" vertex="1">
          <mxGeometry x="170" y="320" width="80" height="40" as="geometry" />
        </mxCell>
        <mxCell id="5r49eWNP3dl64256hJwa-8" style="edgeStyle=orthogonalEdgeStyle;rounded=0;orthogonalLoop=1;jettySize=auto;html=1;exitX=0.25;exitY=1;exitDx=0;exitDy=0;endArrow=none;endFill=0;startArrow=block;startFill=1;" parent="5r49eWNP3dl64256hJwa-1" source="5r49eWNP3dl64256hJwa-10" edge="1">
          <mxGeometry relative="1" as="geometry">
            <mxPoint x="350" y="360" as="targetPoint" />
          </mxGeometry>
        </mxCell>
        <mxCell id="5r49eWNP3dl64256hJwa-9" style="edgeStyle=orthogonalEdgeStyle;rounded=0;orthogonalLoop=1;jettySize=auto;html=1;exitX=0.75;exitY=1;exitDx=0;exitDy=0;endArrow=block;endFill=1;" parent="5r49eWNP3dl64256hJwa-1" source="5r49eWNP3dl64256hJwa-10" edge="1">
          <mxGeometry relative="1" as="geometry">
            <mxPoint x="410" y="320" as="targetPoint" />
          </mxGeometry>
        </mxCell>
        <mxCell id="5r49eWNP3dl64256hJwa-10" value="Calculate increased price" style="rounded=0;whiteSpace=wrap;html=1;" parent="5r49eWNP3dl64256hJwa-1" vertex="1">
          <mxGeometry x="320" y="240" width="120" height="60" as="geometry" />
        </mxCell>
        <mxCell id="5r49eWNP3dl64256hJwa-11" value="postcodes()&lt;br&gt;origValues()" style="text;html=1;strokeColor=none;fillColor=none;align=center;verticalAlign=top;whiteSpace=wrap;rounded=0;rotation=0;" parent="5r49eWNP3dl64256hJwa-1" vertex="1">
          <mxGeometry x="310" y="360" width="80" height="40" as="geometry" />
        </mxCell>
        <mxCell id="5r49eWNP3dl64256hJwa-12" value="newValues()" style="text;html=1;strokeColor=none;fillColor=none;align=center;verticalAlign=top;whiteSpace=wrap;rounded=0;" parent="5r49eWNP3dl64256hJwa-1" vertex="1">
          <mxGeometry x="370" y="320" width="80" height="30" as="geometry" />
        </mxCell>
        <mxCell id="5r49eWNP3dl64256hJwa-13" style="edgeStyle=orthogonalEdgeStyle;rounded=0;orthogonalLoop=1;jettySize=auto;html=1;exitX=0.25;exitY=1;exitDx=0;exitDy=0;endArrow=none;endFill=0;startArrow=block;startFill=1;" parent="5r49eWNP3dl64256hJwa-1" source="5r49eWNP3dl64256hJwa-15" edge="1">
          <mxGeometry relative="1" as="geometry">
            <mxPoint x="550" y="360" as="targetPoint" />
          </mxGeometry>
        </mxCell>
        <mxCell id="5r49eWNP3dl64256hJwa-14" style="edgeStyle=orthogonalEdgeStyle;rounded=0;orthogonalLoop=1;jettySize=auto;html=1;exitX=0.5;exitY=0;exitDx=0;exitDy=0;startArrow=none;startFill=0;endArrow=none;endFill=0;" parent="5r49eWNP3dl64256hJwa-1" source="5r49eWNP3dl64256hJwa-15" edge="1">
          <mxGeometry relative="1" as="geometry">
            <mxPoint x="580" y="200" as="targetPoint" />
          </mxGeometry>
        </mxCell>
        <mxCell id="5r49eWNP3dl64256hJwa-15" value="Write values&lt;br&gt;to file" style="rounded=0;whiteSpace=wrap;html=1;" parent="5r49eWNP3dl64256hJwa-1" vertex="1">
          <mxGeometry x="520" y="240" width="120" height="60" as="geometry" />
        </mxCell>
        <mxCell id="5r49eWNP3dl64256hJwa-16" value="postcodes()&lt;br&gt;origValues()&lt;br&gt;newValues()" style="text;html=1;strokeColor=none;fillColor=none;align=center;verticalAlign=top;whiteSpace=wrap;rounded=0;" parent="5r49eWNP3dl64256hJwa-1" vertex="1">
          <mxGeometry x="510" y="360" width="80" height="60" as="geometry" />
        </mxCell>
        <mxCell id="5r49eWNP3dl64256hJwa-17" value="" style="endArrow=none;html=1;rounded=0;" parent="5r49eWNP3dl64256hJwa-1" edge="1">
          <mxGeometry width="50" height="50" relative="1" as="geometry">
            <mxPoint x="180" y="200" as="sourcePoint" />
            <mxPoint x="580" y="200" as="targetPoint" />
          </mxGeometry>
        </mxCell>
        <mxCell id="5r49eWNP3dl64256hJwa-18" value="&lt;b&gt;House Values (csv)&lt;br&gt;&lt;/b&gt;&lt;br&gt;&lt;div&gt;HS1 6AF,243818&lt;/div&gt;&lt;div&gt;HS6 8YP,201117&lt;/div&gt;&lt;div&gt;&amp;nbsp; ...&lt;/div&gt;&lt;div&gt;&lt;div&gt;HS6 4EH,227561&lt;/div&gt;&lt;div&gt;HS1 4GE,114389&lt;/div&gt;&lt;/div&gt;" style="text;html=1;strokeColor=default;fillColor=none;align=left;verticalAlign=top;whiteSpace=wrap;rounded=0;dashed=1;spacing=2;" parent="5r49eWNP3dl64256hJwa-1" vertex="1">
          <mxGeometry x="120" y="440" width="120" height="116" as="geometry" />
        </mxCell>
        <mxCell id="5r49eWNP3dl64256hJwa-19" value="&lt;b&gt;New Values (csv)&lt;br&gt;&lt;/b&gt;&lt;br&gt;&lt;div&gt;&lt;div&gt;HS1 6AF,243818,246256&lt;/div&gt;&lt;div&gt;HS6 8YP,201117,213184&lt;/div&gt;&lt;/div&gt;&lt;div&gt;&amp;nbsp; ...&lt;/div&gt;&lt;div&gt;&lt;div&gt;HS6 4EH,227561,241215&lt;/div&gt;&lt;div&gt;HS1 4GE,114389,115533&lt;/div&gt;&lt;/div&gt;" style="text;html=1;strokeColor=default;fillColor=none;align=left;verticalAlign=top;whiteSpace=wrap;rounded=0;dashed=1;spacing=2;" parent="5r49eWNP3dl64256hJwa-1" vertex="1">
          <mxGeometry x="500" y="440" width="140" height="116" as="geometry" />
        </mxCell>
        <mxCell id="5r49eWNP3dl64256hJwa-20" value="&lt;b&gt;Value Increase&lt;br&gt;&lt;/b&gt;&lt;br&gt;&lt;div&gt;HS&lt;b&gt;1&lt;/b&gt; xxx --&amp;gt; &lt;b&gt;1&lt;/b&gt;%&lt;/div&gt;&lt;div&gt;HS&lt;b&gt;2&lt;/b&gt; xxx --&amp;gt; &lt;b&gt;2&lt;/b&gt;%&lt;/div&gt;&lt;div&gt;&amp;nbsp; ...&lt;/div&gt;&lt;div&gt;&lt;div&gt;HS&lt;b&gt;8&lt;/b&gt; xxx --&amp;gt; &lt;b&gt;8&lt;/b&gt;%&lt;/div&gt;&lt;div&gt;HS&lt;b&gt;9&lt;/b&gt; xxx --&amp;gt; &lt;b&gt;9&lt;/b&gt;%&lt;/div&gt;&lt;/div&gt;" style="text;html=1;strokeColor=default;fillColor=none;align=left;verticalAlign=top;whiteSpace=wrap;rounded=0;dashed=1;spacing=2;" parent="5r49eWNP3dl64256hJwa-1" vertex="1">
          <mxGeometry x="320" y="440" width="120" height="116" as="geometry" />
        </mxCell>
      </root>
    </mxGraphModel>
  </diagram>
</mxfile>
